HIERARCHY
ROOT Hips
{
	OFFSET 0.000000 89.005402 0.000000
	CHANNELS 6 Xposition Yposition Zposition Xrotation Yrotation Zrotation
	JOINT Spine
	{
		OFFSET 0.116900 10.681000 0.373400
		CHANNELS 3 Xrotation Yrotation Zrotation
		JOINT Spine1
		{
			OFFSET 0.000000 13.840401 0.053500
			CHANNELS 3 Xrotation Yrotation Zrotation
			JOINT Spine2
			{
				OFFSET 0.000000 14.712700 -0.366200
				CHANNELS 3 Xrotation Yrotation Zrotation
				JOINT Neck
				{
					OFFSET 0.000000 35.415497 -3.314200
					CHANNELS 3 Xrotation Yrotation Zrotation
					JOINT Head
					{
						OFFSET 0.000000 16.899200 1.218300
						CHANNELS 3 Xrotation Yrotation Zrotation
						JOINT HeadTop_End
						{
							OFFSET 0.000000 22.206207 2.192500
							CHANNELS 3 Xrotation Yrotation Zrotation
							End Site
							{
								OFFSET 0.000000 22.314178 0.000000
							}
						}
					}
				}
				JOINT LeftShoulder
				{
					OFFSET 12.896400 26.716293 -4.548400
					CHANNELS 3 Xrotation Yrotation Zrotation
					JOINT LeftArm
					{
						OFFSET 19.027000 -4.857010 -1.718400
						CHANNELS 3 Xrotation Yrotation Zrotation
						JOINT LeftForeArm
						{
							OFFSET 24.179897 0.000000 0.000000
							CHANNELS 3 Xrotation Yrotation Zrotation
							JOINT LeftHand
							{
								OFFSET 27.156403 0.000000 0.000000
								CHANNELS 3 Xrotation Yrotation Zrotation
								JOINT LeftHandIndex1
								{
									OFFSET 16.441200 0.000000 0.000000
									CHANNELS 3 Xrotation Yrotation Zrotation
									JOINT LeftHandIndex2
									{
										OFFSET 4.821899 0.000000 0.000000
										CHANNELS 3 Xrotation Yrotation Zrotation
										JOINT LeftHandIndex3
										{
											OFFSET 6.386497 0.000000 0.000000
											CHANNELS 3 Xrotation Yrotation Zrotation
											JOINT LeftHandIndex4
											{
												OFFSET 5.188988 0.000000 0.000000
												CHANNELS 3 Xrotation Yrotation Zrotation
												End Site
												{
													OFFSET -0.178703 5.185913 0.000177
												}
											}
										}
									}
								}
								JOINT LeftHandThumb1
								{
									OFFSET 6.534897 -5.032593 5.900300
									CHANNELS 3 Xrotation Yrotation Zrotation
									JOINT LeftHandThumb2
									{
										OFFSET 3.818176 -2.204422 2.204423
										CHANNELS 3 Xrotation Yrotation Zrotation
										JOINT LeftHandThumb3
										{
											OFFSET 3.252098 -1.877594 1.877601
											CHANNELS 3 Xrotation Yrotation Zrotation
											JOINT LeftHandThumb4
											{
												OFFSET 5.251778 -3.032120 3.032117
												CHANNELS 3 Xrotation Yrotation Zrotation
												End Site
												{
													OFFSET 0.000023 6.780014 0.000000
												}
											}
										}
									}
								}
							}
						}
					}
				}
				JOINT RightShoulder
				{
					OFFSET -12.896300 26.716293 -4.548400
					CHANNELS 3 Xrotation Yrotation Zrotation
					JOINT RightArm
					{
						OFFSET -19.027000 -4.857010 -1.718400
						CHANNELS 3 Xrotation Yrotation Zrotation
						JOINT RightForeArm
						{
							OFFSET -24.179897 0.000000 0.000000
							CHANNELS 3 Xrotation Yrotation Zrotation
							JOINT RightHand
							{
								OFFSET -27.156403 0.000000 0.000000
								CHANNELS 3 Xrotation Yrotation Zrotation
								JOINT RightHandThumb1
								{
									OFFSET -6.591202 -4.852203 5.988100
									CHANNELS 3 Xrotation Yrotation Zrotation
									JOINT RightHandThumb2
									{
										OFFSET -3.818176 -2.204422 2.204423
										CHANNELS 3 Xrotation Yrotation Zrotation
										JOINT RightHandThumb3
										{
											OFFSET -3.252098 -1.877594 1.877601
											CHANNELS 3 Xrotation Yrotation Zrotation
											JOINT RightHandThumb4
											{
												OFFSET -5.251778 -3.032120 3.032117
												CHANNELS 3 Xrotation Yrotation Zrotation
												End Site
												{
													OFFSET -0.000023 6.780014 0.000000
												}
											}
										}
									}
								}
								JOINT RightHandIndex1
								{
									OFFSET -16.029404 0.000000 0.000000
									CHANNELS 3 Xrotation Yrotation Zrotation
									JOINT RightHandIndex2
									{
										OFFSET -5.213303 0.000000 0.000000
										CHANNELS 3 Xrotation Yrotation Zrotation
										JOINT RightHandIndex3
										{
											OFFSET -6.386528 0.000000 0.000000
											CHANNELS 3 Xrotation Yrotation Zrotation
											JOINT RightHandIndex4
											{
												OFFSET -5.189026 0.000000 0.000000
												CHANNELS 3 Xrotation Yrotation Zrotation
												End Site
												{
													OFFSET 0.236702 5.183624 0.001972
												}
											}
										}
									}
								}
							}
						}
					}
				}
			}
		}
	}
	JOINT LeftUpLeg
	{
		OFFSET 14.073000 -7.904099 -1.463000
		CHANNELS 3 Xrotation Yrotation Zrotation
		JOINT LeftLeg
		{
			OFFSET -0.109806 -34.073280 4.093200
			CHANNELS 3 Xrotation Yrotation Zrotation
			JOINT LeftFoot
			{
				OFFSET 0.109806 -29.899420 -6.319000
				CHANNELS 3 Xrotation Yrotation Zrotation
				JOINT LeftToeBase
				{
					OFFSET 1.551100 -14.988700 20.535801
					CHANNELS 3 Xrotation Yrotation Zrotation
					JOINT LeftToe_End
					{
						OFFSET 0.221200 0.570800 13.248301
						CHANNELS 3 Xrotation Yrotation Zrotation
						End Site
						{
							OFFSET 0.000000 13.262435 0.000000
						}
					}
				}
			}
		}
	}
	JOINT RightUpLeg
	{
		OFFSET -13.839300 -7.904099 -1.463000
		CHANNELS 3 Xrotation Yrotation Zrotation
		JOINT RightLeg
		{
			OFFSET 0.109694 -34.073219 4.093300
			CHANNELS 3 Xrotation Yrotation Zrotation
			JOINT RightFoot
			{
				OFFSET -0.109694 -29.899384 -6.319200
				CHANNELS 3 Xrotation Yrotation Zrotation
				JOINT RightToeBase
				{
					OFFSET -1.551100 -14.988700 20.535801
					CHANNELS 3 Xrotation Yrotation Zrotation
					JOINT RightToe_End
					{
						OFFSET -0.221200 0.570900 13.248299
						CHANNELS 3 Xrotation Yrotation Zrotation
						End Site
						{
							OFFSET 0.000000 13.262440 0.000000
						}
					}
				}
			}
		}
	}
}
MOTION
Frames: 7
Frame Time: 0.033333
0.598906 85.896240 19.492680 4.543891 -1.436565 0.151809 -0.798501 -0.338436 0.010150 1.659738 -0.339958 0.363942 1.659714 -0.343194 0.362792 -19.120392 -1.385259 3.817862 17.223401 2.150637 -7.028636 -0.000000 -0.000000 -0.000000 -1.196279 16.826770 23.669674 -160.235732 -72.968646 -115.651782 -0.000004 -0.000022 -0.000003 -22.910763 3.147616 -6.291691 1.083342 6.705528 -67.770824 1.160434 3.501484 -36.662181 1.379374 3.777271 -40.110207 -0.000001 0.000000 -0.000000 53.417830 -58.203396 -1.904859 24.634307 22.667907 -20.232545 3.342247 37.866289 23.350766 0.000001 0.000002 -0.000001 -1.118364 -9.928841 -24.483785 -134.651483 72.794838 92.283130 0.000003 0.000761 -0.000004 -30.935078 2.870671 20.603105 42.310833 34.896314 13.793812 16.851308 -20.758268 -4.962521 3.222809 -35.414145 -21.752261 -0.000002 0.000000 -0.000000 1.375412 -5.012851 49.705134 1.447729 -3.376467 46.406255 0.848487 -2.682127 35.104126 -0.000003 -0.000001 -0.000002 -13.028996 11.051684 10.155688 15.987255 1.877140 2.902402 -7.142062 1.424452 -11.586134 0.291594 0.000009 0.000001 -0.000000 -0.000000 -0.000000 -15.085596 -6.836077 -9.555894 17.725936 -3.660975 -1.595847 -6.674544 -0.916768 10.336041 0.496860 -0.000001 -0.000000 0.000000 0.000000 0.000000 
0.583285 85.906052 19.370213 4.690833 -1.421023 0.214133 -0.769195 -0.347348 0.022631 1.677845 -0.348612 0.369081 1.677798 -0.352149 0.367974 -18.996935 -1.308254 3.633308 17.193015 2.035653 -6.942650 -0.000000 -0.000000 0.000000 -1.204564 17.010344 23.334040 -161.504959 -73.221656 -116.821411 0.000000 -0.000001 0.000005 -22.608739 3.021470 -6.378863 1.083342 6.705528 -67.770824 1.160434 3.501484 -36.662178 1.379374 3.777270 -40.110201 0.000000 -0.000000 -0.000002 53.417827 -58.203396 -1.904853 24.634314 22.667902 -20.232547 3.342246 37.866289 23.350769 -0.000001 -0.000001 0.000005 -1.208202 -10.002791 -24.738464 -134.645322 72.514814 92.385241 0.000002 0.000527 0.000001 -31.398287 2.900947 20.239876 42.310829 34.896311 13.793811 16.851304 -20.758270 -4.962520 3.222807 -35.414148 -21.752261 -0.000001 0.000000 0.000002 1.375409 -5.012848 49.705131 1.447729 -3.376466 46.406252 0.848488 -2.682126 35.104123 0.000001 -0.000001 -0.000002 -13.201451 10.898067 10.035376 15.830775 2.071831 2.984379 -6.923462 1.380902 -11.642462 0.287212 0.000012 0.000000 0.000000 -0.000000 -0.000000 -15.363834 -6.751480 -9.607407 17.745021 -3.745658 -1.578673 -6.559694 -0.892177 10.309264 0.496860 0.000000 -0.000000 -0.000000 -0.000000 0.000000 
0.575468 85.933350 19.119598 4.819911 -1.387628 0.277863 -0.734575 -0.342250 0.050959 1.692934 -0.343227 0.383335 1.692846 -0.347250 0.382435 -18.896634 -1.206583 3.421694 17.045750 1.974867 -6.796363 0.000000 0.000000 0.000000 -1.034878 16.823714 22.609623 -163.076354 -73.380493 -118.830634 0.000002 0.000001 0.000008 -21.725184 3.022066 -6.820524 1.083343 6.705528 -67.770817 1.160434 3.501483 -36.662181 1.379376 3.777271 -40.110204 0.000000 -0.000000 -0.000000 53.417830 -58.203396 -1.904855 24.634307 22.667904 -20.232547 3.342247 37.866289 23.350769 0.000000 -0.000000 0.000002 -1.191618 -9.871918 -24.637793 -135.252608 72.045334 93.678804 -0.000001 -0.000001 -0.000002 -31.591875 2.807873 20.081793 42.310829 34.896311 13.793806 16.851304 -20.758268 -4.962523 3.222808 -35.414148 -21.752255 -0.000003 0.000002 -0.000003 1.375408 -5.012851 49.705131 1.447731 -3.376465 46.406255 0.848487 -2.682126 35.104126 0.000000 -0.000001 0.000000 -13.445277 10.728460 9.888254 15.607283 2.261715 3.082993 -6.553594 1.324738 -11.668947 0.281669 0.000003 -0.000006 0.000000 -0.000001 0.000000 -15.697347 -6.672739 -9.677248 17.680173 -3.827864 -1.525186 -6.289103 -0.858224 10.238627 0.496860 -0.000001 -0.000000 0.000000 -0.000001 0.000000 
0.572474 85.994667 18.725237 4.910192 -1.312195 0.345468 -0.668761 -0.332736 0.071917 1.726114 -0.332689 0.392422 1.726006 -0.337064 0.391769 -18.815807 -1.132603 3.268405 16.639801 1.938291 -6.645638 -0.000000 0.000000 -0.000000 -0.713534 16.109402 21.683977 -164.054751 -73.382979 -120.784218 0.000001 -0.000008 -0.000001 -20.139827 3.267885 -7.620678 1.083343 6.705528 -67.770824 1.160434 3.501484 -36.662178 1.379376 3.777271 -40.110201 0.000000 -0.000000 -0.000002 53.417830 -58.203396 -1.904854 24.634307 22.667902 -20.232540 3.342242 37.866285 23.350766 0.000002 -0.000000 -0.000001 -1.039469 -9.442393 -24.153048 -135.885548 71.378352 95.544982 -0.000002 0.000010 0.000001 -31.410261 2.670597 20.220548 42.310833 34.896314 13.793812 16.851308 -20.758273 -4.962526 3.222808 -35.414145 -21.752266 -0.000000 0.000000 0.000003 1.375409 -5.012850 49.705127 1.447729 -3.376467 46.406252 0.848486 -2.682126 35.104126 0.000002 -0.000000 -0.000000 -13.703327 10.530132 9.695058 15.205032 2.452297 3.204209 -5.958333 1.242923 -11.664068 0.278782 -0.000003 0.000003 0.000000 0.000000 0.000000 -16.028977 -6.614786 -9.753304 17.443405 -3.934394 -1.461641 -5.811273 -0.806968 10.137040 0.496860 0.000000 -0.000000 0.000000 0.000000 0.000000 
0.575660 86.053520 18.173101 4.967272 -1.215959 0.406441 -0.563691 -0.329824 0.059224 1.788530 -0.326963 0.380724 1.788451 -0.331216 0.380207 -18.752884 -1.138433 3.258051 16.033693 1.896430 -6.547422 -0.000001 0.000000 0.000000 -0.334735 14.965257 20.779759 -164.200739 -73.242584 -122.483160 0.000003 -0.000001 0.000004 -18.094006 3.337157 -8.365133 1.083343 6.705528 -67.770824 1.160434 3.501483 -36.662178 1.379375 3.777271 -40.110204 -0.000000 -0.000000 -0.000003 53.417827 -58.203396 -1.904852 24.634307 22.667902 -20.232542 3.342245 37.866292 23.350774 0.000001 0.000001 -0.000002 -0.687102 -8.492857 -23.180713 -135.774885 70.701255 97.188128 0.000001 0.000000 -0.000002 -30.627330 2.337372 20.221514 42.310826 34.896314 13.793811 16.851310 -20.758275 -4.962527 3.222807 -35.414148 -21.752266 -0.000003 0.000000 -0.000001 1.375408 -5.012851 49.705131 1.447729 -3.376463 46.406255 0.848488 -2.682127 35.104123 0.000001 -0.000000 0.000000 -14.087378 10.270684 9.506620 14.841704 2.662937 3.314600 -5.244882 1.148335 -11.620994 0.277205 0.000002 -0.000004 -0.000000 -0.000001 0.000000 -16.456796 -6.535803 -9.806699 17.200182 -4.079429 -1.439963 -5.195943 -0.744981 10.036643 0.496860 -0.000000 -0.000000 -0.000000 -0.000000 0.000000 
0.578803 86.060173 17.475449 5.059300 -1.125814 0.463235 -0.419135 -0.323648 0.038549 1.874937 -0.316734 0.365378 1.874919 -0.320677 0.365013 -18.750585 -1.152609 3.251294 15.292269 1.836193 -6.425677 -0.000000 -0.000000 -0.000000 0.127341 13.482007 19.842738 -164.202624 -73.302048 -124.641049 -0.000003 0.000004 -0.000002 -16.571617 3.160092 -8.532623 1.083344 6.705528 -67.770824 1.160434 3.501484 -36.662178 1.379374 3.777271 -40.110201 -0.000000 0.000001 0.000005 53.417830 -58.203396 -1.904858 24.634310 22.667905 -20.232547 3.342246 37.866289 23.350767 -0.000001 0.000002 0.000002 -0.244793 -7.168997 -22.146076 -134.430895 70.004405 98.101133 0.000002 0.000001 0.000001 -28.972180 1.947203 19.900113 42.310829 34.896311 13.793811 16.851308 -20.758272 -4.962526 3.222805 -35.414145 -21.752261 -0.000002 0.000000 0.000003 1.375409 -5.012851 49.705134 1.447732 -3.376467 46.406252 0.848487 -2.682128 35.104126 0.000002 -0.000000 0.000000 -14.785772 9.984814 9.390149 14.783543 2.841422 3.350381 -4.562074 1.064950 -11.514674 0.277305 -0.000003 -0.000001 0.000000 -0.000000 0.000000 -17.166854 -6.392862 -9.858528 17.199173 -4.256344 -1.432974 -4.571633 -0.672831 9.929209 0.496860 -0.000000 -0.000000 0.000000 -0.000000 0.000000 
0.580942 86.003609 16.672123 5.248615 -1.078970 0.493940 -0.245184 -0.310199 0.032150 1.974473 -0.298535 0.361066 1.974527 -0.302217 0.360902 -18.817625 -1.157993 3.241851 14.488807 1.815895 -6.271255 0.000000 -0.000000 -0.000000 0.663152 11.808622 18.719139 -164.778860 -73.559368 -127.853041 0.000005 -0.000000 -0.000000 -15.582202 3.098827 -8.651614 1.083344 6.705527 -67.770817 1.160434 3.501484 -36.662181 1.379375 3.777270 -40.110197 0.000000 0.000000 -0.000002 53.417830 -58.203396 -1.904857 24.634308 22.667907 -20.232543 3.342246 37.866289 23.350769 0.000002 0.000001 0.000003 0.262470 -5.508112 -21.052386 -131.913957 69.571357 98.284974 0.000000 0.000007 -0.000002 -26.993635 1.565168 19.810347 42.310829 34.896311 13.793812 16.851301 -20.758270 -4.962525 3.222804 -35.414145 -21.752259 -0.000001 0.000002 -0.000002 1.375411 -5.012851 49.705134 1.447729 -3.376466 46.406252 0.848489 -2.682126 35.104126 -0.000001 -0.000001 -0.000003 -15.858764 9.703352 9.388455 15.089710 2.987259 3.304314 -3.973840 0.997856 -11.356901 0.278848 -0.000000 -0.000002 -0.000000 -0.000000 0.000000 -18.203245 -6.214092 -9.911024 17.437285 -4.393283 -1.368166 -3.957441 -0.596059 9.764295 0.496860 0.000000 -0.000000 -0.000000 0.000000 0.000000 
